<svg xmlns="http://www.w3.org/2000/svg" xmlns:xlink="http://www.w3.org/1999/xlink" width="100" zoomAndPan="magnify" viewBox="0 0 375 374.999991" height="500" preserveAspectRatio="xMidYMid meet" version="1.0"><defs><g/><clipPath id="f228973c2e"><path d="M 3 139.570312 L 100 139.570312 L 100 235.570312 L 3 235.570312 Z M 3 139.570312 " clip-rule="nonzero"/></clipPath></defs><path fill="#000000" d="M 58.972656 154.265625 C 53.550781 148.84375 46.335938 145.855469 38.652344 145.855469 C 30.96875 145.855469 23.753906 148.84375 18.335938 154.265625 C 7.132812 165.476562 7.132812 183.722656 18.335938 194.933594 C 23.753906 200.359375 30.96875 203.34375 38.652344 203.34375 C 46.335938 203.34375 53.550781 200.359375 58.972656 194.933594 C 64.390625 189.511719 67.375 182.289062 67.375 174.601562 C 67.375 166.910156 64.390625 159.6875 58.972656 154.265625 Z M 57.363281 193.328125 C 52.375 198.320312 45.730469 201.070312 38.652344 201.070312 C 31.574219 201.070312 24.933594 198.320312 19.941406 193.328125 C 9.625 183 9.625 166.199219 19.941406 155.875 C 24.933594 150.878906 31.578125 148.128906 38.652344 148.128906 C 45.730469 148.128906 52.375 150.878906 57.363281 155.875 C 67.679688 166.199219 67.679688 183 57.363281 193.328125 Z M 57.363281 193.328125 " fill-opacity="1" fill-rule="nonzero"/><g clip-path="url(#f228973c2e)"><path fill="#000000" d="M 97.394531 222.90625 L 78.265625 203.761719 L 74.308594 199.804688 C 73.882812 199.375 73.128906 199.375 72.703125 199.804688 L 72.101562 200.40625 C 72.042969 200.273438 71.964844 200.148438 71.859375 200.039062 L 66.988281 195.164062 C 71.304688 189.226562 73.640625 182.097656 73.640625 174.597656 C 73.640625 165.234375 70.003906 156.433594 63.402344 149.828125 C 56.800781 143.222656 48.011719 139.585938 38.65625 139.585938 C 29.296875 139.585938 20.503906 143.226562 13.902344 149.832031 C 0.257812 163.488281 0.257812 185.710938 13.902344 199.371094 C 20.503906 205.976562 29.296875 209.613281 38.652344 209.613281 C 46.148438 209.613281 53.269531 207.277344 59.203125 202.957031 L 64.074219 207.835938 C 64.183594 207.941406 64.304688 208.019531 64.4375 208.078125 L 63.839844 208.675781 C 63.398438 209.121094 63.398438 209.839844 63.839844 210.285156 L 67.949219 214.398438 L 86.921875 233.386719 C 88.320312 234.789062 90.179688 235.558594 92.160156 235.558594 C 94.136719 235.558594 95.996094 234.789062 97.394531 233.386719 C 100.28125 230.496094 100.28125 225.792969 97.394531 222.90625 Z M 15.507812 197.761719 C 2.746094 184.988281 2.746094 164.210938 15.507812 151.4375 C 21.679688 145.261719 29.898438 141.859375 38.652344 141.859375 C 47.402344 141.859375 55.625 145.261719 61.792969 151.4375 C 67.964844 157.613281 71.363281 165.835938 71.363281 174.597656 C 71.363281 183.355469 67.964844 191.582031 61.792969 197.757812 C 55.621094 203.933594 47.402344 207.335938 38.652344 207.335938 C 29.902344 207.335938 21.679688 203.9375 15.507812 197.761719 Z M 65.679688 206.222656 L 61.011719 201.546875 C 61.835938 200.859375 62.636719 200.136719 63.402344 199.367188 C 64.167969 198.597656 64.894531 197.796875 65.582031 196.972656 L 70.25 201.648438 C 70.359375 201.757812 70.480469 201.835938 70.613281 201.890625 L 65.921875 206.589844 C 65.867188 206.457031 65.789062 206.332031 65.679688 206.222656 Z M 73.507812 202.214844 L 75.878906 204.589844 L 68.730469 211.957031 L 66.25 209.476562 Z M 95.789062 231.777344 C 94.816406 232.746094 93.527344 233.28125 92.160156 233.28125 C 90.789062 233.28125 89.5 232.746094 88.53125 231.777344 L 70.335938 213.566406 L 77.488281 206.199219 L 95.789062 224.515625 C 97.789062 226.515625 97.789062 229.773438 95.789062 231.777344 Z M 95.789062 231.777344 " fill-opacity="1" fill-rule="nonzero"/></g><g fill="#ffa857" fill-opacity="1"><g transform="translate(104.039532, 196.390779)"><g><path d="M 1.796875 -10.171875 C 2.304688 -9.703125 2.769531 -9.367188 3.1875 -9.171875 C 3.601562 -8.972656 4.066406 -8.875 4.578125 -8.875 C 5.484375 -8.875 6.097656 -9.28125 6.421875 -10.09375 C 6.742188 -10.90625 6.90625 -12.4375 6.90625 -14.6875 L 6.90625 -26.5 L -0.046875 -26.5 L 2.234375 -36.296875 L 16.703125 -36.296875 L 16.703125 -15.40625 C 16.703125 -13.769531 16.691406 -12.46875 16.671875 -11.5 C 16.660156 -10.539062 16.625 -9.734375 16.5625 -9.078125 C 16.507812 -8.429688 16.421875 -7.867188 16.296875 -7.390625 C 16.171875 -6.921875 16 -6.378906 15.78125 -5.765625 C 15.09375 -3.804688 13.921875 -2.265625 12.265625 -1.140625 C 10.617188 -0.015625 8.707031 0.546875 6.53125 0.546875 C 4.207031 0.546875 2.015625 -0.0351562 -0.046875 -1.203125 Z M 1.796875 -10.171875 "/></g></g></g><g fill="#ffa857" fill-opacity="1"><g transform="translate(123.032905, 196.390779)"><g><path d="M 16.21875 -36.84375 C 18.832031 -36.84375 21.265625 -36.144531 23.515625 -34.75 C 25.765625 -33.351562 27.578125 -31.398438 28.953125 -28.890625 C 29.753906 -27.515625 30.363281 -25.898438 30.78125 -24.046875 C 31.195312 -22.203125 31.40625 -20.242188 31.40625 -18.171875 C 31.40625 -15.453125 31.054688 -12.976562 30.359375 -10.75 C 29.671875 -8.519531 28.65625 -6.585938 27.3125 -4.953125 C 25.863281 -3.171875 24.175781 -1.804688 22.25 -0.859375 C 20.332031 0.078125 18.300781 0.546875 16.15625 0.546875 C 12.820312 0.546875 9.867188 -0.578125 7.296875 -2.828125 C 3.160156 -6.304688 1.09375 -11.515625 1.09375 -18.453125 C 1.09375 -23.710938 2.453125 -28.007812 5.171875 -31.34375 C 6.617188 -33.082031 8.300781 -34.429688 10.21875 -35.390625 C 12.144531 -36.359375 14.144531 -36.84375 16.21875 -36.84375 Z M 16.21875 -26.890625 C 14.726562 -26.890625 13.554688 -26.109375 12.703125 -24.546875 C 11.847656 -22.984375 11.421875 -20.84375 11.421875 -18.125 C 11.421875 -15.257812 11.847656 -13.035156 12.703125 -11.453125 C 13.554688 -9.878906 14.742188 -9.09375 16.265625 -9.09375 C 17.796875 -9.09375 18.976562 -9.878906 19.8125 -11.453125 C 20.644531 -13.035156 21.0625 -15.203125 21.0625 -17.953125 C 21.0625 -20.785156 20.632812 -22.984375 19.78125 -24.546875 C 18.925781 -26.109375 17.738281 -26.890625 16.21875 -26.890625 Z M 16.21875 -26.890625 "/></g></g></g><g fill="#ffa857" fill-opacity="1"><g transform="translate(155.523001, 196.390779)"><g><path d="M 2.453125 -26.5 L 0.265625 -26.5 L 2.453125 -36.296875 L 13.4375 -36.296875 C 14.5625 -36.296875 15.554688 -36.257812 16.421875 -36.1875 C 17.296875 -36.113281 18.078125 -36.015625 18.765625 -35.890625 C 19.460938 -35.765625 20.070312 -35.582031 20.59375 -35.34375 C 21.125 -35.113281 21.625 -34.832031 22.09375 -34.5 C 23.070312 -33.738281 23.832031 -32.710938 24.375 -31.421875 C 24.925781 -30.140625 25.203125 -28.679688 25.203125 -27.046875 C 25.203125 -25.191406 24.921875 -23.65625 24.359375 -22.4375 C 23.796875 -21.226562 22.820312 -20.132812 21.4375 -19.15625 C 23.144531 -18.539062 24.390625 -17.503906 25.171875 -16.046875 C 25.953125 -14.597656 26.34375 -12.660156 26.34375 -10.234375 C 26.34375 -6.566406 25.289062 -3.804688 23.1875 -1.953125 C 22.75 -1.554688 22.289062 -1.226562 21.8125 -0.96875 C 21.34375 -0.71875 20.765625 -0.519531 20.078125 -0.375 C 19.390625 -0.226562 18.5625 -0.128906 17.59375 -0.078125 C 16.632812 -0.0234375 15.453125 0 14.046875 0 L 2.453125 0 Z M 12.25 -21.609375 C 13.625 -21.609375 14.53125 -21.804688 14.96875 -22.203125 C 15.40625 -22.597656 15.625 -23.394531 15.625 -24.59375 C 15.625 -25.570312 15.40625 -26.28125 14.96875 -26.71875 C 14.53125 -27.15625 13.820312 -27.375 12.84375 -27.375 L 12.25 -27.375 Z M 12.25 -9.03125 C 12.425781 -9 12.59375 -8.984375 12.75 -8.984375 C 12.914062 -8.984375 13.035156 -8.984375 13.109375 -8.984375 C 14.160156 -8.984375 14.90625 -9.234375 15.34375 -9.734375 C 15.78125 -10.242188 16 -11.097656 16 -12.296875 C 16 -13.492188 15.726562 -14.316406 15.1875 -14.765625 C 14.644531 -15.222656 13.664062 -15.453125 12.25 -15.453125 Z M 12.25 -9.03125 "/></g></g></g><g fill="#ffa857" fill-opacity="1"><g transform="translate(183.223936, 196.390779)"><g><path d="M 3.8125 -12.078125 C 5.15625 -11.140625 6.566406 -10.40625 8.046875 -9.875 C 9.535156 -9.351562 10.914062 -9.09375 12.1875 -9.09375 C 12.914062 -9.09375 13.515625 -9.269531 13.984375 -9.625 C 14.453125 -9.988281 14.6875 -10.484375 14.6875 -11.109375 C 14.6875 -11.429688 14.632812 -11.726562 14.53125 -12 C 14.425781 -12.269531 14.207031 -12.550781 13.875 -12.84375 C 13.550781 -13.132812 13.109375 -13.441406 12.546875 -13.765625 C 11.984375 -14.097656 11.25 -14.476562 10.34375 -14.90625 C 8.632812 -15.707031 7.316406 -16.394531 6.390625 -16.96875 C 5.460938 -17.550781 4.65625 -18.171875 3.96875 -18.828125 C 3.03125 -19.660156 2.316406 -20.710938 1.828125 -21.984375 C 1.335938 -23.253906 1.09375 -24.613281 1.09375 -26.0625 C 1.09375 -27.625 1.34375 -29.054688 1.84375 -30.359375 C 2.351562 -31.671875 3.070312 -32.804688 4 -33.765625 C 4.925781 -34.734375 6.003906 -35.488281 7.234375 -36.03125 C 8.472656 -36.570312 9.832031 -36.84375 11.3125 -36.84375 C 12.082031 -36.84375 12.800781 -36.796875 13.46875 -36.703125 C 14.132812 -36.617188 15.015625 -36.445312 16.109375 -36.1875 L 16.484375 -37.765625 L 24.328125 -35.859375 L 21.875 -25.90625 C 20.863281 -26.738281 19.738281 -27.378906 18.5 -27.828125 C 17.269531 -28.285156 16.070312 -28.515625 14.90625 -28.515625 C 14 -28.515625 13.265625 -28.34375 12.703125 -28 C 12.140625 -27.65625 11.859375 -27.191406 11.859375 -26.609375 C 11.859375 -26.316406 11.921875 -26.046875 12.046875 -25.796875 C 12.179688 -25.546875 12.425781 -25.273438 12.78125 -24.984375 C 13.144531 -24.691406 13.632812 -24.363281 14.25 -24 C 14.875 -23.632812 15.65625 -23.21875 16.59375 -22.75 C 17.5 -22.28125 18.269531 -21.867188 18.90625 -21.515625 C 19.539062 -21.171875 20.082031 -20.84375 20.53125 -20.53125 C 20.988281 -20.226562 21.378906 -19.929688 21.703125 -19.640625 C 22.035156 -19.347656 22.347656 -19.023438 22.640625 -18.671875 C 24.234375 -16.742188 25.03125 -14.363281 25.03125 -11.53125 C 25.03125 -9.757812 24.726562 -8.128906 24.125 -6.640625 C 23.53125 -5.148438 22.707031 -3.878906 21.65625 -2.828125 C 20.601562 -1.773438 19.34375 -0.945312 17.875 -0.34375 C 16.40625 0.25 14.78125 0.546875 13 0.546875 C 11.039062 0.546875 9.132812 0.273438 7.28125 -0.265625 C 5.4375 -0.816406 3.519531 -1.671875 1.53125 -2.828125 Z M 3.8125 -12.078125 "/></g></g></g><g fill="#ffa857" fill-opacity="1"><g transform="translate(209.18336, 196.390779)"><g><path d="M 5.328125 -26.5 L 0.21875 -26.5 L 2.390625 -36.296875 L 13.609375 -36.296875 L 13.9375 -37.546875 L 22.421875 -37.546875 L 19.96875 -26.5 L 15.125 -26.5 L 15.125 0 L 5.328125 0 Z M 5.328125 -26.5 "/></g></g></g><g fill="#ffa857" fill-opacity="1"><g transform="translate(230.734578, 196.390779)"><g><path d="M 2.453125 -26.5 L 0.265625 -26.5 L 2.453125 -36.296875 L 14.859375 -36.296875 L 14.859375 -37.546875 L 23.515625 -37.546875 L 21.0625 -26.5 L 12.25 -26.5 L 12.25 -22.15625 L 22.75 -22.15625 L 21.0625 -14.15625 L 12.25 -14.15625 L 12.25 -9.796875 L 22.75 -9.796875 L 20.578125 0 L 2.453125 0 Z M 2.453125 -26.5 "/></g></g></g><g fill="#ffa857" fill-opacity="1"><g transform="translate(255.442289, 196.390779)"><g><path d="M 2.453125 -26.5 L 0.265625 -26.5 L 2.453125 -36.296875 L 13.171875 -36.296875 C 14.660156 -36.296875 15.972656 -36.234375 17.109375 -36.109375 C 18.253906 -35.984375 19.257812 -35.773438 20.125 -35.484375 C 21 -35.191406 21.769531 -34.804688 22.4375 -34.328125 C 23.113281 -33.859375 23.757812 -33.28125 24.375 -32.59375 C 26.40625 -30.238281 27.421875 -27.046875 27.421875 -23.015625 C 27.421875 -17.316406 25.644531 -13.546875 22.09375 -11.703125 L 27.375 0 L 16.15625 0 L 12.796875 -10.453125 L 12.25 -10.453125 L 12.25 0 L 2.453125 0 Z M 12.25 -26.828125 L 12.25 -18.34375 C 12.394531 -18.300781 12.535156 -18.28125 12.671875 -18.28125 C 12.816406 -18.28125 12.925781 -18.28125 13 -18.28125 C 14.3125 -18.28125 15.320312 -18.660156 16.03125 -19.421875 C 16.738281 -20.191406 17.09375 -21.265625 17.09375 -22.640625 C 17.09375 -25.429688 15.710938 -26.828125 12.953125 -26.828125 Z M 12.25 -26.828125 "/></g></g></g><path stroke-linecap="butt" transform="matrix(0.314013, 0, 0, 0.314013, 287.7444, 141.125132)" fill="none" stroke-linejoin="miter" d="M 84.073497 163.682343 C 73.449916 173.049505 62.291424 177.739306 50.610461 177.739306 C 43.669058 177.739306 37.02621 176.022615 30.681917 172.614113 C 24.325184 169.20561 18.951195 164.42873 14.559949 158.308354 C 7.170713 148.045527 3.463656 135.220103 3.463656 119.844522 C 3.463656 108.511873 5.292305 98.361004 8.924724 89.429234 C 12.569582 80.485025 17.669896 73.344585 24.250545 68.007915 C 27.970043 65.022365 32.012975 62.721004 36.391781 61.116271 C 40.795467 59.474219 45.174273 58.665633 49.553079 58.665633 C 51.182692 58.665633 52.750105 58.777591 54.24288 59.001507 C 55.748095 59.225423 57.701142 59.635936 60.126901 60.233046 L 61.868471 56.588188 L 85.09356 67.336166 L 72.106419 101.819265 C 69.08355 97.788773 66.160199 94.877862 63.348807 93.111412 C 60.524974 91.295203 57.265749 90.399538 53.571131 90.399538 C 42.114084 90.399538 36.391781 99.804019 36.391781 118.625422 C 36.391781 127.64427 37.772597 134.647872 40.534231 139.611349 C 43.333184 144.574825 47.214398 147.062783 52.177875 147.062783 C 59.343194 147.062783 65.986042 141.974909 72.106419 131.82404 Z M 125.659717 89.852187 C 130.959067 89.852187 135.835465 90.922009 140.30135 93.061653 C 144.754795 95.213737 148.58625 98.236606 151.808156 102.15514 C 155.054941 106.086114 157.567779 110.738595 159.334229 116.125024 C 161.150439 121.486574 162.046103 127.358155 162.046103 133.727328 C 162.046103 140.183579 161.150439 146.142239 159.334229 151.578427 C 157.567779 157.002176 155.054941 161.642217 151.808156 165.510992 C 148.58625 169.367327 144.705036 172.377757 140.127193 174.5174 C 135.56179 176.657044 130.560994 177.739306 125.149685 177.739306 C 119.937413 177.739306 115.148094 176.632165 110.806607 174.430322 C 106.49 172.228479 102.708303 169.168291 99.461518 165.249757 C 96.252052 161.331223 93.739214 156.691181 91.935445 151.329631 C 90.156555 145.943202 89.27333 140.071621 89.27333 133.727328 C 89.27333 127.358155 90.156555 121.486574 91.935445 116.125024 C 93.739214 110.738595 96.252052 106.110993 99.461518 102.242218 C 102.708303 98.385883 106.539759 95.350574 110.980764 93.148732 C 115.434209 90.946889 120.323047 89.852187 125.659717 89.852187 Z M 125.659717 118.78714 C 123.010041 118.78714 120.969916 120.155516 119.564219 122.89227 C 118.183403 125.604145 117.486774 129.497799 117.486774 134.573234 C 117.486774 139.760626 118.183403 143.728919 119.564219 146.465673 C 120.969916 149.177547 123.010041 150.521045 125.659717 150.521045 C 128.309392 150.521045 130.324638 149.177547 131.705455 146.465673 C 133.086271 143.728919 133.7829 139.872584 133.7829 134.909108 C 133.7829 124.161129 131.071025 118.78714 125.659717 118.78714 Z M 189.413642 142.186385 C 194.265161 142.186385 198.071736 143.815998 200.83337 147.062783 C 203.632323 150.297129 205.025579 154.688375 205.025579 160.211642 C 205.025579 165.772228 203.545244 170.175914 200.584574 173.422699 C 197.648784 176.632165 193.755129 178.236898 188.903611 178.236898 C 184.052093 178.236898 180.170878 176.632165 177.272407 173.422699 C 174.386376 170.175914 172.9558 165.884186 172.9558 160.559956 C 172.9558 155.024249 174.448574 150.583244 177.434124 147.2245 C 180.456993 143.865757 184.450166 142.186385 189.413642 142.186385 Z M 189.413642 142.186385 " stroke="#ffa857" stroke-width="4.658056" stroke-opacity="1" stroke-miterlimit="4"/></svg>